<?xml version="1.0" encoding="UTF-8" standalone="no"?>
<!DOCTYPE svg PUBLIC "-//W3C//DTD SVG 1.1//EN" "http://www.w3.org/Graphics/SVG/1.1/DTD/svg11.dtd">
<svg width="100%" height="100%" viewBox="0 0 215 46" version="1.1" xmlns="http://www.w3.org/2000/svg" xmlns:xlink="http://www.w3.org/1999/xlink" xml:space="preserve" xmlns:serif="http://www.serif.com/" style="fill-rule:evenodd;clip-rule:evenodd;stroke-linejoin:round;stroke-miterlimit:2;">
    <path d="M53.807,33.183L53.807,13.522L60.631,13.522C62.914,13.522 64.8,13.929 66.29,14.743C67.78,15.557 68.884,16.699 69.604,18.17C70.324,19.642 70.683,21.368 70.683,23.353C70.683,25.337 70.324,27.038 69.604,28.506C68.884,29.974 67.78,31.122 66.29,31.947C64.8,32.772 62.914,33.183 60.631,33.183L53.807,33.183ZM58.019,29.556L60.377,29.556C61.893,29.556 63.092,29.309 63.971,28.811C64.851,28.317 65.472,27.604 65.839,26.678C66.206,25.751 66.388,24.643 66.388,23.349C66.388,22.055 66.206,20.921 65.839,19.995C65.472,19.068 64.851,18.356 63.971,17.862C63.092,17.367 61.893,17.116 60.377,17.116L58.019,17.116L58.019,29.556Z" style="fill:rgb(35,31,32);fill-rule:nonzero;"/>
    <path d="M74.531,17.396C73.783,17.396 73.172,17.182 72.707,16.749C72.238,16.321 72.006,15.775 72.006,15.121C72.006,14.467 72.238,13.897 72.707,13.464C73.176,13.032 73.783,12.817 74.531,12.817C75.28,12.817 75.923,13.032 76.399,13.464C76.876,13.897 77.115,14.445 77.115,15.121C77.115,15.797 76.876,16.321 76.399,16.749C75.923,17.182 75.298,17.396 74.531,17.396ZM72.424,33.179L72.424,19.024L76.636,19.024L76.636,33.179L72.424,33.179Z" style="fill:rgb(35,31,32);fill-rule:nonzero;"/>
    <path d="M85.173,39.695C83.788,39.695 82.589,39.532 81.579,39.205C80.569,38.877 79.787,38.387 79.235,37.729C78.682,37.075 78.406,36.25 78.406,35.258C78.406,34.546 78.599,33.881 78.98,33.263C79.366,32.645 79.911,32.096 80.623,31.62C81.335,31.144 82.186,30.744 83.178,30.428L84.581,32.561C83.756,32.805 83.145,33.125 82.742,33.517C82.338,33.91 82.138,34.349 82.138,34.836C82.138,35.211 82.269,35.53 82.531,35.792C82.793,36.054 83.152,36.25 83.61,36.381C84.068,36.512 84.581,36.577 85.14,36.577C85.7,36.577 86.154,36.512 86.557,36.381C86.961,36.25 87.277,36.057 87.513,35.807C87.746,35.552 87.866,35.251 87.866,34.895C87.866,34.426 87.706,34.051 87.39,33.772C87.07,33.492 86.416,33.314 85.424,33.237C84.508,33.161 83.676,33.056 82.938,32.914C82.197,32.772 81.542,32.601 80.972,32.394C80.401,32.187 79.911,31.965 79.497,31.722C79.086,31.478 78.766,31.235 78.541,30.991L78.541,30.345L81.63,26.947L84.522,27.844L80.787,31.635L82.077,29.502C82.262,29.614 82.458,29.723 82.665,29.825C82.873,29.927 83.123,30.017 83.425,30.09C83.723,30.167 84.097,30.236 84.548,30.301C84.998,30.366 85.576,30.439 86.289,30.512C87.506,30.624 88.513,30.853 89.309,31.199C90.104,31.544 90.693,32.016 91.078,32.616C91.464,33.216 91.652,33.946 91.652,34.807C91.652,35.669 91.42,36.446 90.951,37.195C90.482,37.944 89.77,38.547 88.818,39.005C87.862,39.463 86.645,39.691 85.166,39.691L85.173,39.695ZM85.202,29.08C84.021,29.08 83.003,28.847 82.142,28.379C81.281,27.91 80.616,27.288 80.147,26.511C79.678,25.733 79.446,24.857 79.446,23.883C79.446,22.909 79.678,22.063 80.147,21.285C80.616,20.507 81.281,19.882 82.142,19.402C83.003,18.923 84.025,18.687 85.202,18.687C86.379,18.687 87.43,18.926 88.291,19.402C89.152,19.879 89.806,20.507 90.257,21.285C90.708,22.063 90.929,22.927 90.929,23.883C90.929,24.839 90.704,25.733 90.257,26.511C89.806,27.288 89.152,27.91 88.291,28.379C87.43,28.847 86.401,29.08 85.202,29.08ZM85.202,25.907C85.838,25.907 86.361,25.74 86.775,25.402C87.19,25.064 87.393,24.57 87.393,23.912C87.393,23.255 87.186,22.76 86.775,22.422C86.365,22.084 85.838,21.917 85.202,21.917C84.566,21.917 84.035,22.084 83.614,22.422C83.192,22.76 82.982,23.255 82.982,23.912C82.982,24.57 83.192,25.064 83.614,25.402C84.035,25.74 84.562,25.907 85.202,25.907ZM87.561,21.921L86.943,19.028L92.812,19.028L92.812,21.416L87.561,21.921Z" style="fill:rgb(35,31,32);fill-rule:nonzero;"/>
    <path d="M96.743,17.396C95.994,17.396 95.383,17.182 94.918,16.749C94.449,16.321 94.217,15.775 94.217,15.121C94.217,14.467 94.449,13.897 94.918,13.464C95.387,13.032 95.994,12.817 96.743,12.817C97.491,12.817 98.134,13.032 98.61,13.464C99.086,13.897 99.326,14.445 99.326,15.121C99.326,15.797 99.086,16.321 98.61,16.749C98.134,17.182 97.509,17.396 96.743,17.396ZM94.635,33.179L94.635,19.024L98.847,19.024L98.847,33.179L94.635,33.179Z" style="fill:rgb(35,31,32);fill-rule:nonzero;"/>
    <path d="M107.75,33.179C106.74,33.179 105.842,33.015 105.054,32.688C104.269,32.361 103.658,31.823 103.23,31.075C102.797,30.326 102.583,29.305 102.583,28.015L102.583,22.538L100.166,22.538L100.166,19.028L102.583,19.028L103.033,15.041L106.798,15.041L106.798,19.028L110.421,19.028L110.421,22.538L106.798,22.538L106.798,28.069C106.798,28.632 106.925,29.029 107.176,29.261C107.43,29.494 107.863,29.614 108.481,29.614L110.418,29.614L110.418,33.179L107.75,33.179Z" style="fill:rgb(35,31,32);fill-rule:nonzero;"/>
    <path d="M117.076,33.517C115.895,33.517 114.917,33.329 114.139,32.954C113.362,32.58 112.791,32.071 112.428,31.424C112.064,30.777 111.879,30.061 111.879,29.276C111.879,28.433 112.09,27.688 112.511,27.045C112.933,26.398 113.591,25.886 114.492,25.501C115.389,25.116 116.523,24.927 117.89,24.927L121.317,24.927C121.317,24.291 121.237,23.767 121.077,23.353C120.917,22.942 120.659,22.633 120.306,22.426C119.95,22.219 119.463,22.117 118.845,22.117C118.191,22.117 117.639,22.248 117.188,22.51C116.738,22.772 116.458,23.186 116.345,23.745L112.3,23.745C112.395,22.735 112.726,21.856 113.296,21.107C113.867,20.359 114.63,19.77 115.586,19.337C116.541,18.909 117.635,18.69 118.871,18.69C120.219,18.69 121.389,18.912 122.381,19.352C123.373,19.792 124.144,20.431 124.696,21.274C125.249,22.117 125.525,23.164 125.525,24.421L125.525,33.183L122.014,33.183L121.509,31.134C121.302,31.49 121.059,31.813 120.779,32.104C120.499,32.395 120.168,32.645 119.794,32.863C119.42,33.078 119.009,33.241 118.558,33.354C118.108,33.467 117.613,33.521 117.068,33.521L117.076,33.517ZM118.115,30.316C118.566,30.316 118.958,30.24 119.292,30.09C119.627,29.942 119.921,29.734 120.165,29.473C120.408,29.211 120.608,28.906 120.768,28.561C120.928,28.215 121.044,27.834 121.12,27.423L121.12,27.394L118.395,27.394C117.926,27.394 117.537,27.456 117.228,27.576C116.919,27.699 116.69,27.87 116.541,28.095C116.392,28.321 116.316,28.582 116.316,28.88C116.316,29.2 116.396,29.465 116.556,29.68C116.716,29.894 116.93,30.054 117.203,30.156C117.475,30.258 117.777,30.309 118.115,30.309L118.115,30.316Z" style="fill:rgb(35,31,32);fill-rule:nonzero;"/>
    <rect x="127.633" y="12.959" width="4.212" height="20.22" style="fill:rgb(35,31,32);fill-rule:nonzero;"/>
    <path d="M134.457,33.179L134.457,13.523L136.423,13.523L136.423,33.179L134.457,33.179ZM135.972,23.996L135.972,22.368L147.627,22.368L147.627,23.996L135.972,23.996ZM147.064,33.179L147.064,13.523L149.03,13.523L149.03,33.179L147.064,33.179Z" style="fill:rgb(35,31,32);fill-rule:nonzero;"/>
    <path d="M158.046,33.517C156.755,33.517 155.589,33.212 154.55,32.605C153.51,31.998 152.693,31.137 152.093,30.022C151.493,28.906 151.195,27.612 151.195,26.133C151.195,24.654 151.501,23.277 152.107,22.172C152.714,21.067 153.543,20.209 154.593,19.603C155.64,18.996 156.81,18.69 158.104,18.69C159.397,18.69 160.64,18.996 161.669,19.603C162.697,20.213 163.511,21.067 164.111,22.172C164.71,23.277 165.008,24.596 165.008,26.133C165.008,27.67 164.703,28.909 164.096,30.022C163.486,31.137 162.664,31.998 161.625,32.605C160.586,33.212 159.394,33.517 158.046,33.517ZM158.075,31.831C158.954,31.831 159.764,31.617 160.502,31.184C161.24,30.756 161.84,30.112 162.297,29.262C162.755,28.412 162.984,27.358 162.984,26.104C162.984,24.85 162.759,23.775 162.312,22.931C161.861,22.088 161.269,21.456 160.528,21.034C159.786,20.613 158.979,20.402 158.1,20.402C157.221,20.402 156.461,20.616 155.712,21.049C154.964,21.481 154.361,22.11 153.903,22.946C153.445,23.778 153.216,24.832 153.216,26.104C153.216,27.376 153.441,28.412 153.888,29.262C154.339,30.116 154.931,30.756 155.673,31.184C156.41,31.617 157.213,31.831 158.075,31.831Z" style="fill:rgb(35,31,32);fill-rule:nonzero;"/>
    <path d="M166.976,33.179L166.976,19.024L168.771,19.024L168.913,21.157C169.342,20.373 169.941,19.762 170.708,19.333C171.475,18.904 172.329,18.686 173.263,18.686C173.975,18.686 174.629,18.788 175.229,18.995C175.829,19.202 176.352,19.511 176.803,19.922C177.253,20.333 177.617,20.867 177.896,21.521C178.347,20.641 178.998,19.947 179.848,19.442C180.698,18.937 181.61,18.683 182.584,18.683C183.671,18.683 184.616,18.897 185.419,19.33C186.222,19.762 186.847,20.416 187.287,21.296C187.727,22.175 187.948,23.291 187.948,24.639L187.948,33.175L185.982,33.175L185.982,24.864C185.982,23.367 185.677,22.248 185.07,21.51C184.463,20.772 183.595,20.402 182.472,20.402C181.723,20.402 181.04,20.601 180.422,21.005C179.804,21.408 179.321,21.986 178.976,22.746C178.63,23.505 178.456,24.446 178.456,25.569L178.456,33.179L176.49,33.179L176.49,24.868C176.49,23.371 176.181,22.251 175.563,21.514C174.946,20.776 174.095,20.405 173.009,20.405C172.224,20.405 171.526,20.605 170.915,21.008C170.305,21.412 169.825,22.001 169.469,22.778C169.113,23.556 168.935,24.515 168.935,25.656L168.935,33.183L166.969,33.183L166.976,33.179Z" style="fill:rgb(35,31,32);fill-rule:nonzero;"/>
    <path d="M196.32,33.517C195.008,33.517 193.852,33.209 192.853,32.591C191.85,31.973 191.065,31.108 190.494,29.992C189.924,28.88 189.637,27.572 189.637,26.075C189.637,24.578 189.917,23.277 190.48,22.172C191.043,21.067 191.832,20.209 192.853,19.603C193.874,18.996 195.048,18.69 196.378,18.69C197.708,18.69 198.904,18.999 199.859,19.617C200.815,20.235 201.538,21.042 202.036,22.034C202.53,23.026 202.781,24.113 202.781,25.29L202.781,25.864C202.781,26.06 202.77,26.289 202.752,26.551L191.127,26.551L191.127,24.894L200.87,24.894C200.811,23.451 200.361,22.339 199.507,21.55C198.656,20.766 197.584,20.369 196.291,20.369C195.466,20.369 194.692,20.562 193.961,20.944C193.231,21.329 192.646,21.888 192.206,22.63C191.766,23.371 191.548,24.301 191.548,25.424L191.548,26.155C191.548,27.427 191.777,28.484 192.235,29.327C192.693,30.171 193.289,30.799 194.019,31.21C194.75,31.621 195.517,31.828 196.323,31.828C197.392,31.828 198.271,31.588 198.962,31.112C199.656,30.636 200.15,29.974 200.452,29.131L202.389,29.131C202.163,29.956 201.778,30.701 201.237,31.362C200.692,32.028 200.008,32.551 199.187,32.936C198.362,33.318 197.41,33.51 196.323,33.51L196.32,33.517Z" style="fill:rgb(35,31,32);fill-rule:nonzero;"/>
    <path d="M209.773,33.517C208.65,33.517 207.662,33.329 206.811,32.954C205.957,32.58 205.274,32.042 204.762,31.341C204.245,30.639 203.933,29.8 203.82,28.826L205.87,28.826C205.964,29.367 206.175,29.865 206.502,30.316C206.829,30.767 207.273,31.123 207.836,31.384C208.399,31.646 209.061,31.777 209.831,31.777C210.543,31.777 211.128,31.675 211.586,31.468C212.044,31.261 212.389,30.977 212.626,30.61C212.858,30.247 212.978,29.836 212.978,29.389C212.978,28.771 212.833,28.288 212.542,27.943C212.251,27.598 211.837,27.34 211.292,27.169C210.747,27.002 210.093,26.842 209.326,26.693C208.69,26.58 208.087,26.431 207.516,26.242C206.946,26.057 206.43,25.813 205.972,25.512C205.514,25.214 205.147,24.832 204.878,24.374C204.605,23.916 204.471,23.378 204.471,22.761C204.471,21.958 204.671,21.249 205.074,20.642C205.477,20.035 206.052,19.555 206.8,19.21C207.549,18.865 208.428,18.69 209.439,18.69C210.881,18.69 212.059,19.05 212.978,19.773C213.894,20.493 214.428,21.547 214.577,22.931L212.611,22.931C212.535,22.165 212.219,21.554 211.655,21.107C211.092,20.657 210.336,20.431 209.38,20.431C208.425,20.431 207.727,20.624 207.233,21.005C206.738,21.391 206.488,21.91 206.488,22.564C206.488,22.975 206.619,23.331 206.88,23.633C207.142,23.931 207.531,24.189 208.047,24.403C208.563,24.618 209.195,24.803 209.944,24.952C210.841,25.119 211.67,25.341 212.429,25.613C213.189,25.886 213.807,26.297 214.283,26.849C214.759,27.401 214.999,28.183 214.999,29.193C215.017,30.036 214.81,30.785 214.381,31.439C213.948,32.093 213.345,32.605 212.571,32.969C211.793,33.332 210.863,33.517 209.777,33.517L209.773,33.517Z" style="fill:rgb(35,31,32);fill-rule:nonzero;"/>
    <path d="M26.106,24.78L24.027,24.78C23.696,24.78 23.428,25.049 23.428,25.38L23.428,27.459C23.428,27.79 23.696,28.058 24.027,28.058L26.106,28.058C26.437,28.058 26.706,27.79 26.706,27.459L26.706,25.38C26.706,25.049 26.437,24.78 26.106,24.78Z" style="fill:url(#_Radial1);fill-rule:nonzero;"/>
    <path d="M21.364,20.26L19.285,20.26C18.954,20.26 18.686,20.528 18.686,20.859L18.686,22.938C18.686,23.269 18.954,23.538 19.285,23.538L21.364,23.538C21.695,23.538 21.964,23.269 21.964,22.938L21.964,20.859C21.964,20.528 21.695,20.26 21.364,20.26Z" style="fill:url(#_Radial2);fill-rule:nonzero;"/>
    <path d="M26.106,20.26L24.027,20.26C23.696,20.26 23.428,20.528 23.428,20.859L23.428,22.938C23.428,23.269 23.696,23.538 24.027,23.538L26.106,23.538C26.437,23.538 26.706,23.269 26.706,22.938L26.706,20.859C26.706,20.528 26.437,20.26 26.106,20.26Z" style="fill:url(#_Radial3);fill-rule:nonzero;"/>
    <path d="M21.364,24.78L19.285,24.78C18.954,24.78 18.686,25.049 18.686,25.38L18.686,27.459C18.686,27.79 18.954,28.058 19.285,28.058L21.364,28.058C21.695,28.058 21.964,27.79 21.964,27.459L21.964,25.38C21.964,25.049 21.695,24.78 21.364,24.78Z" style="fill:url(#_Radial4);fill-rule:nonzero;"/>
    <path d="M19.26,28.055L21.106,28.055C21.404,28.055 21.647,27.811 21.647,27.513L21.647,25.634C21.647,25.336 21.404,25.093 21.106,25.093L19.227,25.093C18.929,25.093 18.686,25.336 18.686,25.634L18.686,27.48C18.686,27.797 18.944,28.055 19.26,28.055Z" style="fill:url(#_Radial5);fill-rule:nonzero;"/>
    <path d="M24.002,28.055L25.848,28.055C26.146,28.055 26.39,27.811 26.39,27.513L26.39,25.634C26.39,25.336 26.146,25.093 25.848,25.093L23.969,25.093C23.671,25.093 23.428,25.336 23.428,25.634L23.428,27.48C23.428,27.797 23.686,28.055 24.002,28.055Z" style="fill:url(#_Radial6);fill-rule:nonzero;"/>
    <path d="M19.249,23.534L20.957,23.534C21.237,23.534 21.466,23.305 21.466,23.025L21.466,21.263C21.466,20.983 21.237,20.754 20.957,20.754L19.194,20.754C18.915,20.754 18.686,20.983 18.686,21.263L18.686,22.971C18.686,23.283 18.936,23.534 19.249,23.534Z" style="fill:url(#_Radial7);fill-rule:nonzero;"/>
    <path d="M23.991,23.534L25.699,23.534C25.979,23.534 26.208,23.305 26.208,23.025L26.208,21.263C26.208,20.983 25.979,20.754 25.699,20.754L23.937,20.754C23.657,20.754 23.428,20.983 23.428,21.263L23.428,22.971C23.428,23.283 23.679,23.534 23.991,23.534Z" style="fill:url(#_Radial8);fill-rule:nonzero;"/>
    <path d="M37.678,13.61L21.459,1.403C20.249,0.494 18.781,0 17.266,0C15.754,0 14.282,0.491 13.072,1.403L2.78,9.147C1.032,10.463 0,12.527 0,14.718L0,31.293C0,33.484 1.028,35.548 2.78,36.864L6.425,39.608L8.478,41.152C7.185,40.178 6.425,38.656 6.425,37.035L6.425,16.172C6.425,15.165 6.897,14.213 7.704,13.61L16.738,6.81C17.207,6.458 17.851,6.458 18.319,6.81L31.522,16.746C32.151,17.218 32.521,17.96 32.521,18.748L32.521,31.446C32.521,32.376 31.765,33.132 30.835,33.132L35.367,33.132C37.347,33.132 38.954,31.526 38.954,29.545L38.954,16.175C38.954,15.169 38.481,14.217 37.674,13.613L37.678,13.61Z" style="fill:url(#_Linear9);fill-rule:nonzero;"/>
    <path d="M42.602,9.147L32.311,1.403C31.1,0.494 29.632,0 28.117,0L17.266,0C18.777,0 20.249,0.491 21.459,1.403L37.678,13.61C38.485,14.217 38.957,15.165 38.957,16.172L38.957,29.541C38.957,31.522 37.351,33.128 35.371,33.128L14.525,33.128C13.602,33.117 12.857,32.369 12.857,31.442L12.857,36.21C12.857,38.19 14.464,39.797 16.444,39.797L36.711,39.797C38.002,39.797 39.259,39.375 40.291,38.601L42.599,36.864C44.35,35.548 45.379,33.484 45.379,31.293L45.379,14.718C45.379,12.527 44.35,10.466 42.599,9.147L42.602,9.147Z" style="fill:url(#_Linear10);fill-rule:nonzero;"/>
    <path d="M36.711,39.797L16.444,39.797C14.463,39.797 12.857,38.19 12.857,36.21L12.857,18.744C12.857,17.956 13.228,17.214 13.856,16.742L21.39,11.073C22.167,10.499 23.229,10.499 24.003,11.08L22.694,10.092L18.33,6.806C17.861,6.454 17.218,6.454 16.749,6.806L7.715,13.606C6.908,14.213 6.436,15.161 6.436,16.168L6.436,37.031C6.436,38.648 7.195,40.174 8.489,41.148L13.079,44.601C14.285,45.509 15.757,46 17.269,46L28.124,46C29.636,46 31.107,45.509 32.314,44.601L38.703,39.793L40.294,38.597C39.262,39.375 38.005,39.793 36.715,39.793L36.711,39.797Z" style="fill:url(#_Linear11);fill-rule:nonzero;"/>
    <path d="M14.507,33.128C13.591,33.11 12.854,32.365 12.854,31.445L12.854,36.213C12.854,38.194 14.46,39.8 16.44,39.8L36.711,39.8L36.711,33.132L14.507,33.132L14.507,33.128Z" style="fill:url(#_Linear12);fill-rule:nonzero;"/>
    <path d="M37.677,13.61L21.462,1.406C20.324,0.549 18.954,0.069 17.537,0.015L17.537,5.56C17.537,5.975 17.733,6.363 18.06,6.61L31.528,16.746C32.157,17.218 32.528,17.96 32.528,18.748L32.528,31.446C32.528,32.376 31.772,33.132 30.841,33.132L35.373,33.132C37.354,33.132 38.96,31.526 38.96,29.545L38.96,16.175C38.96,15.165 38.487,14.217 37.681,13.61L37.677,13.61Z" style="fill:url(#_Linear13);fill-rule:nonzero;"/>
    <path d="M24.003,11.08L22.694,10.092L18.33,6.806C17.861,6.454 17.218,6.454 16.749,6.806L7.715,13.606C6.908,14.213 6.436,15.161 6.436,16.168L6.436,33.124L12.861,33.124L12.861,18.741C12.861,17.952 13.231,17.211 13.86,16.738L21.393,11.069C22.171,10.495 23.232,10.495 24.006,11.076L24.003,11.08Z" style="fill:url(#_Linear14);fill-rule:nonzero;"/>
    <defs>
        <radialGradient id="_Radial1" cx="0" cy="0" r="1" gradientUnits="userSpaceOnUse" gradientTransform="matrix(27.9424,0,0,27.9423,22.7082,40.9591)"><stop offset="0" style="stop-color:rgb(0,204,204);stop-opacity:1"/><stop offset="0.27" style="stop-color:rgb(0,135,199);stop-opacity:1"/><stop offset="0.43" style="stop-color:rgb(0,99,197);stop-opacity:1"/><stop offset="0.54" style="stop-color:rgb(39,74,184);stop-opacity:1"/><stop offset="0.69" style="stop-color:rgb(90,42,168);stop-opacity:1"/><stop offset="0.83" style="stop-color:rgb(128,19,156);stop-opacity:1"/><stop offset="0.93" style="stop-color:rgb(151,5,149);stop-opacity:1"/><stop offset="1" style="stop-color:rgb(160,0,147);stop-opacity:1"/></radialGradient>
        <radialGradient id="_Radial2" cx="0" cy="0" r="1" gradientUnits="userSpaceOnUse" gradientTransform="matrix(27.9424,0,0,27.9423,22.7085,40.9594)"><stop offset="0" style="stop-color:rgb(0,204,204);stop-opacity:1"/><stop offset="0.27" style="stop-color:rgb(0,135,199);stop-opacity:1"/><stop offset="0.43" style="stop-color:rgb(0,99,197);stop-opacity:1"/><stop offset="0.54" style="stop-color:rgb(39,74,184);stop-opacity:1"/><stop offset="0.69" style="stop-color:rgb(90,42,168);stop-opacity:1"/><stop offset="0.83" style="stop-color:rgb(128,19,156);stop-opacity:1"/><stop offset="0.93" style="stop-color:rgb(151,5,149);stop-opacity:1"/><stop offset="1" style="stop-color:rgb(160,0,147);stop-opacity:1"/></radialGradient>
        <radialGradient id="_Radial3" cx="0" cy="0" r="1" gradientUnits="userSpaceOnUse" gradientTransform="matrix(27.9424,0,0,27.9423,22.7082,40.9594)"><stop offset="0" style="stop-color:rgb(0,204,204);stop-opacity:1"/><stop offset="0.27" style="stop-color:rgb(0,135,199);stop-opacity:1"/><stop offset="0.43" style="stop-color:rgb(0,99,197);stop-opacity:1"/><stop offset="0.54" style="stop-color:rgb(39,74,184);stop-opacity:1"/><stop offset="0.69" style="stop-color:rgb(90,42,168);stop-opacity:1"/><stop offset="0.83" style="stop-color:rgb(128,19,156);stop-opacity:1"/><stop offset="0.93" style="stop-color:rgb(151,5,149);stop-opacity:1"/><stop offset="1" style="stop-color:rgb(160,0,147);stop-opacity:1"/></radialGradient>
        <radialGradient id="_Radial4" cx="0" cy="0" r="1" gradientUnits="userSpaceOnUse" gradientTransform="matrix(27.9424,0,0,27.9423,22.7085,40.9591)"><stop offset="0" style="stop-color:rgb(0,204,204);stop-opacity:1"/><stop offset="0.27" style="stop-color:rgb(0,135,199);stop-opacity:1"/><stop offset="0.43" style="stop-color:rgb(0,99,197);stop-opacity:1"/><stop offset="0.54" style="stop-color:rgb(39,74,184);stop-opacity:1"/><stop offset="0.69" style="stop-color:rgb(90,42,168);stop-opacity:1"/><stop offset="0.83" style="stop-color:rgb(128,19,156);stop-opacity:1"/><stop offset="0.93" style="stop-color:rgb(151,5,149);stop-opacity:1"/><stop offset="1" style="stop-color:rgb(160,0,147);stop-opacity:1"/></radialGradient>
        <radialGradient id="_Radial5" cx="0" cy="0" r="1" gradientUnits="userSpaceOnUse" gradientTransform="matrix(25.2641,0,0,25.2641,22.3233,39.7236)"><stop offset="0" style="stop-color:rgb(12,242,242);stop-opacity:1"/><stop offset="0.26" style="stop-color:rgb(12,178,237);stop-opacity:1"/><stop offset="0.43" style="stop-color:rgb(12,142,235);stop-opacity:1"/><stop offset="0.58" style="stop-color:rgb(76,96,217);stop-opacity:1"/><stop offset="0.72" style="stop-color:rgb(128,59,204);stop-opacity:1"/><stop offset="0.84" style="stop-color:rgb(166,32,194);stop-opacity:1"/><stop offset="0.94" style="stop-color:rgb(189,15,188);stop-opacity:1"/><stop offset="1" style="stop-color:rgb(198,10,186);stop-opacity:1"/></radialGradient>
        <radialGradient id="_Radial6" cx="0" cy="0" r="1" gradientUnits="userSpaceOnUse" gradientTransform="matrix(25.2641,0,0,25.2641,27.0654,39.7236)"><stop offset="0" style="stop-color:rgb(12,242,242);stop-opacity:1"/><stop offset="0.26" style="stop-color:rgb(12,178,237);stop-opacity:1"/><stop offset="0.43" style="stop-color:rgb(12,142,235);stop-opacity:1"/><stop offset="0.58" style="stop-color:rgb(76,96,217);stop-opacity:1"/><stop offset="0.72" style="stop-color:rgb(128,59,204);stop-opacity:1"/><stop offset="0.84" style="stop-color:rgb(166,32,194);stop-opacity:1"/><stop offset="0.94" style="stop-color:rgb(189,15,188);stop-opacity:1"/><stop offset="1" style="stop-color:rgb(198,10,186);stop-opacity:1"/></radialGradient>
        <radialGradient id="_Radial7" cx="0" cy="0" r="1" gradientUnits="userSpaceOnUse" gradientTransform="matrix(23.6978,0,0,23.6978,22.0979,38.3138)"><stop offset="0" style="stop-color:rgb(12,242,242);stop-opacity:1"/><stop offset="0.26" style="stop-color:rgb(12,178,237);stop-opacity:1"/><stop offset="0.43" style="stop-color:rgb(12,142,235);stop-opacity:1"/><stop offset="0.58" style="stop-color:rgb(76,96,217);stop-opacity:1"/><stop offset="0.72" style="stop-color:rgb(128,59,204);stop-opacity:1"/><stop offset="0.84" style="stop-color:rgb(166,32,194);stop-opacity:1"/><stop offset="0.94" style="stop-color:rgb(189,15,188);stop-opacity:1"/><stop offset="1" style="stop-color:rgb(198,10,186);stop-opacity:1"/></radialGradient>
        <radialGradient id="_Radial8" cx="0" cy="0" r="1" gradientUnits="userSpaceOnUse" gradientTransform="matrix(23.6978,0,0,23.6978,26.8401,38.3137)"><stop offset="0" style="stop-color:rgb(12,242,242);stop-opacity:1"/><stop offset="0.26" style="stop-color:rgb(12,178,237);stop-opacity:1"/><stop offset="0.43" style="stop-color:rgb(12,142,235);stop-opacity:1"/><stop offset="0.58" style="stop-color:rgb(76,96,217);stop-opacity:1"/><stop offset="0.72" style="stop-color:rgb(128,59,204);stop-opacity:1"/><stop offset="0.84" style="stop-color:rgb(166,32,194);stop-opacity:1"/><stop offset="0.94" style="stop-color:rgb(189,15,188);stop-opacity:1"/><stop offset="1" style="stop-color:rgb(198,10,186);stop-opacity:1"/></radialGradient>
        <linearGradient id="_Linear9" x1="0" y1="0" x2="1" y2="0" gradientUnits="userSpaceOnUse" gradientTransform="matrix(-31.2748,46.2617,-46.2617,-31.2748,30.7987,4.87329)"><stop offset="0" style="stop-color:rgb(235,54,197);stop-opacity:1"/><stop offset="0.35" style="stop-color:rgb(93,117,229);stop-opacity:1"/><stop offset="0.57" style="stop-color:rgb(12,155,248);stop-opacity:1"/><stop offset="0.74" style="stop-color:rgb(27,191,250);stop-opacity:1"/><stop offset="1" style="stop-color:rgb(55,255,255);stop-opacity:1"/></linearGradient>
        <linearGradient id="_Linear10" x1="0" y1="0" x2="1" y2="0" gradientUnits="userSpaceOnUse" gradientTransform="matrix(-44.63,44.63,-44.63,-44.63,39.8658,8.55097)"><stop offset="0" style="stop-color:rgb(235,54,197);stop-opacity:1"/><stop offset="0.35" style="stop-color:rgb(93,117,229);stop-opacity:1"/><stop offset="0.57" style="stop-color:rgb(12,155,248);stop-opacity:1"/><stop offset="0.74" style="stop-color:rgb(27,191,250);stop-opacity:1"/><stop offset="1" style="stop-color:rgb(55,255,255);stop-opacity:1"/></linearGradient>
        <linearGradient id="_Linear11" x1="0" y1="0" x2="1" y2="0" gradientUnits="userSpaceOnUse" gradientTransform="matrix(-12.5957,47.2393,-47.2393,-12.5957,27.8548,10.3278)"><stop offset="0" style="stop-color:rgb(235,54,197);stop-opacity:1"/><stop offset="0.35" style="stop-color:rgb(93,117,229);stop-opacity:1"/><stop offset="0.57" style="stop-color:rgb(12,155,248);stop-opacity:1"/><stop offset="0.74" style="stop-color:rgb(27,191,250);stop-opacity:1"/><stop offset="1" style="stop-color:rgb(55,255,255);stop-opacity:1"/></linearGradient>
        <linearGradient id="_Linear12" x1="0" y1="0" x2="1" y2="0" gradientUnits="userSpaceOnUse" gradientTransform="matrix(-37.5762,4.60176e-15,-4.60176e-15,-37.5762,35.4465,35.6209)"><stop offset="0" style="stop-color:rgb(62,7,139);stop-opacity:0"/><stop offset="1" style="stop-color:rgb(62,7,139);stop-opacity:1"/></linearGradient>
        <linearGradient id="_Linear13" x1="0" y1="0" x2="1" y2="0" gradientUnits="userSpaceOnUse" gradientTransform="matrix(37.4164,0,0,37.4164,18.1767,16.5715)"><stop offset="0" style="stop-color:rgb(62,7,139);stop-opacity:0"/><stop offset="1" style="stop-color:rgb(62,7,139);stop-opacity:1"/></linearGradient>
        <linearGradient id="_Linear14" x1="0" y1="0" x2="1" y2="0" gradientUnits="userSpaceOnUse" gradientTransform="matrix(13.2461,-41.0505,41.0505,13.2461,9.10295,32.3212)"><stop offset="0" style="stop-color:rgb(62,7,139);stop-opacity:0"/><stop offset="1" style="stop-color:rgb(62,7,139);stop-opacity:1"/></linearGradient>
    </defs>
</svg>
